<svg width="1595" height="309" viewBox="0 0 1595 309" fill="none" xmlns="http://www.w3.org/2000/svg">
<line x1="46.5" y1="47.5" x2="311.5" y2="47.5" stroke="white" stroke-width="11" stroke-linecap="round"/>
<line x1="72.8208" y1="49.537" x2="16.432" y2="204.464" stroke="white" stroke-width="8"/>
<line x1="293.05" y1="51.3681" x2="238.405" y2="201.502" stroke="white" stroke-width="8"/>
<line x1="122.077" y1="204.295" x2="65.6879" y2="49.3681" stroke="white" stroke-width="8"/>
<line x1="340.922" y1="201.502" x2="286.278" y2="51.3682" stroke="white" stroke-width="8"/>
<line x1="180.5" y1="6.5" x2="180.5" y2="285.5" stroke="white" stroke-width="13" stroke-linecap="round"/>
<line x1="225" y1="205" x2="353" y2="205" stroke="white" stroke-width="10" stroke-linecap="round"/>
<line x1="5" y1="205" x2="133" y2="205" stroke="white" stroke-width="10" stroke-linecap="round"/>
<path d="M542.191 103V231.4H541.231L408.031 100.12H406.831V271H417.871V142.6H418.831L552.031 273.88H553.231V103H542.191ZM704.098 221.56L727.138 271H750.418L672.178 103H660.178L589.138 271H600.178L621.298 221.56H704.098ZM699.058 210.76H625.858L660.418 129.88H661.378L699.058 210.76ZM766.599 228.52C766.919 235.4 768.679 241.64 771.879 247.24C775.239 252.84 779.719 257.64 785.319 261.64C791.079 265.48 797.799 268.52 805.479 270.76C813.159 272.84 821.559 273.88 830.679 273.88C839.959 273.88 848.279 272.76 855.639 270.52C863.159 268.28 869.559 265.08 874.839 260.92C880.119 256.76 884.199 251.72 887.079 245.8C889.959 239.88 891.399 233.32 891.399 226.12C891.399 216.2 888.919 208.12 883.959 201.88C878.999 195.48 872.759 190.2 865.239 186.04C857.879 181.72 849.799 178.12 840.999 175.24C832.359 172.36 824.279 169.32 816.759 166.12C809.399 162.92 803.239 159.24 798.279 155.08C793.319 150.92 790.839 145.4 790.839 138.52C790.839 134.68 791.639 131.08 793.239 127.72C794.999 124.36 797.479 121.48 800.679 119.08C804.039 116.52 808.119 114.52 812.919 113.08C817.719 111.48 823.239 110.68 829.479 110.68C839.879 110.68 848.679 112.92 855.879 117.4C863.239 121.72 867.559 128.6 868.839 138.04H885.159C884.199 132.12 882.039 126.84 878.679 122.2C875.319 117.4 871.079 113.4 865.959 110.2C860.839 106.84 854.999 104.36 848.439 102.76C842.039 101 835.319 100.12 828.279 100.12C820.919 100.12 813.879 101.08 807.159 103C800.599 104.92 794.759 107.72 789.639 111.4C784.679 115.08 780.679 119.72 777.639 125.32C774.759 130.92 773.319 137.32 773.319 144.52C773.319 153.96 775.719 161.56 780.519 167.32C785.319 173.08 791.319 177.88 798.519 181.72C805.879 185.56 813.799 188.84 822.279 191.56C830.759 194.28 838.599 197.4 845.799 200.92C853.159 204.28 859.239 208.44 864.039 213.4C868.839 218.36 871.239 225 871.239 233.32C871.239 243.72 867.399 251.32 859.719 256.12C852.199 260.92 842.119 263.32 829.479 263.32C819.399 263.32 811.319 262.04 805.239 259.48C799.159 256.76 794.519 253.56 791.319 249.88C788.119 246.2 785.959 242.44 784.839 238.6C783.719 234.6 783.079 231.24 782.919 228.52H766.599ZM916.599 228.52C916.919 235.4 918.679 241.64 921.879 247.24C925.239 252.84 929.719 257.64 935.319 261.64C941.079 265.48 947.799 268.52 955.479 270.76C963.159 272.84 971.559 273.88 980.679 273.88C989.959 273.88 998.279 272.76 1005.64 270.52C1013.16 268.28 1019.56 265.08 1024.84 260.92C1030.12 256.76 1034.2 251.72 1037.08 245.8C1039.96 239.88 1041.4 233.32 1041.4 226.12C1041.4 216.2 1038.92 208.12 1033.96 201.88C1029 195.48 1022.76 190.2 1015.24 186.04C1007.88 181.72 999.799 178.12 990.999 175.24C982.359 172.36 974.279 169.32 966.759 166.12C959.399 162.92 953.239 159.24 948.279 155.08C943.319 150.92 940.839 145.4 940.839 138.52C940.839 134.68 941.639 131.08 943.239 127.72C944.999 124.36 947.479 121.48 950.679 119.08C954.039 116.52 958.119 114.52 962.919 113.08C967.719 111.48 973.239 110.68 979.479 110.68C989.879 110.68 998.679 112.92 1005.88 117.4C1013.24 121.72 1017.56 128.6 1018.84 138.04H1035.16C1034.2 132.12 1032.04 126.84 1028.68 122.2C1025.32 117.4 1021.08 113.4 1015.96 110.2C1010.84 106.84 1005 104.36 998.439 102.76C992.039 101 985.319 100.12 978.279 100.12C970.919 100.12 963.879 101.08 957.159 103C950.599 104.92 944.759 107.72 939.639 111.4C934.679 115.08 930.679 119.72 927.639 125.32C924.759 130.92 923.319 137.32 923.319 144.52C923.319 153.96 925.719 161.56 930.519 167.32C935.319 173.08 941.319 177.88 948.519 181.72C955.879 185.56 963.799 188.84 972.279 191.56C980.759 194.28 988.599 197.4 995.799 200.92C1003.16 204.28 1009.24 208.44 1014.04 213.4C1018.84 218.36 1021.24 225 1021.24 233.32C1021.24 243.72 1017.4 251.32 1009.72 256.12C1002.2 260.92 992.119 263.32 979.479 263.32C969.399 263.32 961.319 262.04 955.239 259.48C949.159 256.76 944.519 253.56 941.319 249.88C938.119 246.2 935.959 242.44 934.839 238.6C933.719 234.6 933.079 231.24 932.919 228.52H916.599ZM1096.12 103V271H1117.96V103H1096.12ZM1207.03 187.48H1307.59V271H1329.43V103H1307.59V176.44H1207.03V103H1185.19V271H1207.03V187.48ZM1480.35 221.56L1503.39 271H1526.67L1448.43 103H1436.43L1365.39 271H1376.43L1397.55 221.56H1480.35ZM1475.31 210.76H1402.11L1436.67 129.88H1437.63L1475.31 210.76Z" fill="#FCFCFC"/>
<line x1="354" y1="205.657" x2="334.657" y2="225" stroke="white" stroke-width="8" stroke-linecap="round"/>
<line x1="354" y1="205.657" x2="334.657" y2="225" stroke="white" stroke-width="8" stroke-linecap="round"/>
<line x1="134" y1="205.657" x2="114.657" y2="225" stroke="white" stroke-width="8" stroke-linecap="round"/>
<line x1="134" y1="205.657" x2="114.657" y2="225" stroke="white" stroke-width="8" stroke-linecap="round"/>
<line x1="4" y1="-4" x2="26.5164" y2="-4" transform="matrix(-0.819232 -0.573462 -0.819232 0.573462 243 309)" stroke="white" stroke-width="8" stroke-linecap="round"/>
<line x1="4" y1="-4" x2="26.5164" y2="-4" transform="matrix(-0.819232 -0.573462 -0.819232 0.573462 243 309)" stroke="white" stroke-width="8" stroke-linecap="round"/>
<line x1="243.343" y1="225" x2="224" y2="205.657" stroke="white" stroke-width="8" stroke-linecap="round"/>
<line x1="243.343" y1="225" x2="224" y2="205.657" stroke="white" stroke-width="8" stroke-linecap="round"/>
<line x1="23.3431" y1="225" x2="4" y2="205.657" stroke="white" stroke-width="8" stroke-linecap="round"/>
<line x1="23.3431" y1="225" x2="4" y2="205.657" stroke="white" stroke-width="8" stroke-linecap="round"/>
<line x1="4" y1="-4" x2="26.5164" y2="-4" transform="matrix(-0.819232 0.573462 0.819232 0.573462 141 291.5)" stroke="white" stroke-width="8" stroke-linecap="round"/>
<line x1="4" y1="-4" x2="26.5164" y2="-4" transform="matrix(-0.819232 0.573462 0.819232 0.573462 141 291.5)" stroke="white" stroke-width="8" stroke-linecap="round"/>
<line x1="244" y1="226" x2="333" y2="226" stroke="white" stroke-width="8" stroke-linecap="round"/>
<line x1="244" y1="226" x2="333" y2="226" stroke="white" stroke-width="8" stroke-linecap="round"/>
<line x1="24" y1="226" x2="113" y2="226" stroke="white" stroke-width="8" stroke-linecap="round"/>
<line x1="24" y1="226" x2="113" y2="226" stroke="white" stroke-width="8" stroke-linecap="round"/>
<line y1="-4" x2="90" y2="-4" transform="matrix(1 -2.91409e-08 -2.62268e-07 -1 134 288)" stroke="white" stroke-width="8"/>
<line y1="-4" x2="90" y2="-4" transform="matrix(1 -2.91409e-08 -2.62268e-07 -1 134 288)" stroke="white" stroke-width="8"/>
<path d="M13 204H128V205C128 216.046 119.046 225 108 225H33C21.9543 225 13 216.046 13 205V204Z" fill="#FCFCFC"/>
<path d="M232 204H347V205C347 216.046 338.046 225 327 225H252C240.954 225 232 216.046 232 205V204Z" fill="#FCFCFC"/>
</svg>
