<svg width="14" height="17" viewBox="0 0 14 17" fill="#FFFFFF" xmlns="http://www.w3.org/2000/svg">
<path fill-rule="evenodd" clip-rule="evenodd" d="M6.51543 16.2659C5.75334 15.428 4.29309 13.7558 3.0214 11.9187C2.37802 10.9893 1.79326 10.0324 1.37175 9.13089C0.944651 8.21744 0.71402 7.42093 0.71402 6.79567C0.71402 3.40823 3.33944 0.71402 6.51543 0.71402C9.69142 0.71402 12.3168 3.40823 12.3168 6.79567C12.3168 7.42093 12.0862 8.21744 11.6591 9.13089C11.2376 10.0324 10.6528 10.9893 10.0095 11.9187C8.73777 13.7558 7.27752 15.428 6.51543 16.2659ZM7.0171 16.7755C8.54395 15.0997 13.0309 9.91023 13.0309 6.79567C13.0309 3.04252 10.1138 0 6.51543 0C2.91706 0 0 3.04252 0 6.79567C0 9.91023 4.48691 15.0997 6.01376 16.7755C6.28647 17.0748 6.74439 17.0748 7.0171 16.7755Z" fill="#FFFFFF"/>
<path fill-rule="evenodd" clip-rule="evenodd" d="M6.51542 6.78338C6.86047 6.78338 7.14019 6.50366 7.14019 6.15861C7.14019 5.81356 6.86047 5.53384 6.51542 5.53384C6.17037 5.53384 5.89066 5.81356 5.89066 6.15861C5.89066 6.50366 6.17037 6.78338 6.51542 6.78338ZM6.51542 7.4974C7.25481 7.4974 7.85421 6.898 7.85421 6.15861C7.85421 5.41922 7.25481 4.81982 6.51542 4.81982C5.77603 4.81982 5.17664 5.41922 5.17664 6.15861C5.17664 6.898 5.77603 7.4974 6.51542 7.4974Z" fill="#FFFFFF"/>
<path fill-rule="evenodd" clip-rule="evenodd" d="M8.93174 3.00244C9.42541 3.22727 9.97124 3.73784 10.1994 4.34752C10.2685 4.53218 10.4742 4.62587 10.6588 4.55678C10.8435 4.48768 10.9372 4.28197 10.8681 4.0973C10.5654 3.28835 9.87117 2.6457 9.22768 2.35264C9.04825 2.27091 8.83653 2.35013 8.75481 2.52956C8.67309 2.709 8.7523 2.92071 8.93174 3.00244Z" fill="#FFFFFF"/>
</svg>
