<svg width="77" height="55" viewBox="0 0 77 55" fill="none" xmlns="http://www.w3.org/2000/svg">
<path fill-rule="evenodd" clip-rule="evenodd" d="M1 2C1 0.89543 1.89543 0 3 0H74.5C75.6046 0 76.5 0.89543 76.5 2C76.5 3.10457 75.6046 4 74.5 4H3C1.89543 4 1 3.10457 1 2Z" fill="url(#paint0_linear_13_466)"/>
<path fill-rule="evenodd" clip-rule="evenodd" d="M0 27.3284C0 26.2239 0.89543 25.3284 2 25.3284H73.5C74.6046 25.3284 75.5 26.2239 75.5 27.3284C75.5 28.433 74.6046 29.3284 73.5 29.3284H2C0.89543 29.3284 0 28.433 0 27.3284Z" fill="url(#paint1_linear_13_466)"/>
<path fill-rule="evenodd" clip-rule="evenodd" d="M0 52.3284C0 51.2239 0.89543 50.3284 2 50.3284H73.5C74.6046 50.3284 75.5 51.2239 75.5 52.3284C75.5 53.433 74.6046 54.3284 73.5 54.3284H2C0.89543 54.3284 0 53.433 0 52.3284Z" fill="url(#paint2_linear_13_466)"/>
<defs>
<linearGradient id="paint0_linear_13_466" x1="38.75" y1="0" x2="38.75" y2="4" gradientUnits="userSpaceOnUse">
<stop stop-color="#0069CD"/>
<stop offset="1" stop-color="#6002E0"/>
</linearGradient>
<linearGradient id="paint1_linear_13_466" x1="37.75" y1="25.3284" x2="37.75" y2="29.3284" gradientUnits="userSpaceOnUse">
<stop stop-color="#0069CD"/>
<stop offset="1" stop-color="#6002E0"/>
</linearGradient>
<linearGradient id="paint2_linear_13_466" x1="37.75" y1="50.3284" x2="37.75" y2="54.3284" gradientUnits="userSpaceOnUse">
<stop stop-color="#0069CD"/>
<stop offset="1" stop-color="#6002E0"/>
</linearGradient>
</defs>
</svg>
