<svg width="86" height="86" viewBox="0 0 86 86" fill="none" xmlns="http://www.w3.org/2000/svg">
<path fill-rule="evenodd" clip-rule="evenodd" d="M43 82C64.5391 82 82 64.5391 82 43C82 21.4609 64.5391 4 43 4C21.4609 4 4 21.4609 4 43C4 64.5391 21.4609 82 43 82ZM43 86C66.7482 86 86 66.7482 86 43C86 19.2518 66.7482 0 43 0C19.2518 0 0 19.2518 0 43C0 66.7482 19.2518 86 43 86Z" fill="url(#paint0_linear_13_404)"/>
<path fill-rule="evenodd" clip-rule="evenodd" d="M54.3137 31.6863C55.0948 32.4673 55.0948 33.7337 54.3137 34.5147L34.5148 54.3137C33.7337 55.0948 32.4674 55.0948 31.6863 54.3137C30.9053 53.5327 30.9053 52.2663 31.6863 51.4853L51.4853 31.6863C52.2664 30.9052 53.5327 30.9052 54.3137 31.6863Z" fill="url(#paint1_linear_13_404)"/>
<path fill-rule="evenodd" clip-rule="evenodd" d="M54.3137 54.3137C53.5326 55.0948 52.2663 55.0948 51.4853 54.3137L31.6863 34.5147C30.9052 33.7337 30.9052 32.4673 31.6863 31.6863C32.4673 30.9052 33.7337 30.9052 34.5147 31.6863L54.3137 51.4853C55.0947 52.2663 55.0947 53.5327 54.3137 54.3137Z" fill="url(#paint2_linear_13_404)"/>
<defs>
<linearGradient id="paint0_linear_13_404" x1="43" y1="0" x2="43" y2="86" gradientUnits="userSpaceOnUse">
<stop stop-color="#094B72"/>
<stop offset="1" stop-color="#05546D"/>
</linearGradient>
<linearGradient id="paint1_linear_13_404" x1="54.3137" y1="31.6863" x2="31.6863" y2="54.3137" gradientUnits="userSpaceOnUse">
<stop stop-color="#094B72"/>
<stop offset="1" stop-color="#05546D"/>
</linearGradient>
<linearGradient id="paint2_linear_13_404" x1="54.3137" y1="54.3137" x2="31.6863" y2="31.6863" gradientUnits="userSpaceOnUse">
<stop stop-color="#094B72"/>
<stop offset="1" stop-color="#05546D"/>
</linearGradient>
</defs>
</svg>
