<?xml version="1.0" encoding="iso-8859-1"?>
<!-- Generator: Adobe Illustrator 16.0.0, SVG Export Plug-In . SVG Version: 6.00 Build 0)  -->
<!DOCTYPE svg PUBLIC "-//W3C//DTD SVG 1.1//EN" "http://www.w3.org/Graphics/SVG/1.1/DTD/svg11.dtd">
<svg style="width:2.4em;vertical-align: middle;margin-top: -4px;" version="1.1" id="Layer_1" xmlns="http://www.w3.org/2000/svg" xmlns:xlink="http://www.w3.org/1999/xlink" x="0px" y="0px" viewBox="0 0 512.002 512.002" xml:space="preserve">
<g>
	<g>
		<path fill="#FFF" d="M313.324,0H198.677c-12.555,0-20.436,13.625-14.151,24.511l53.582,92.806l-90.795,260.556
			c-1.884,5.407-0.801,11.405,2.855,15.81l24.905,30.021c2.178,2.625,6.206,2.625,8.384,0l136.908-165.029
			c1.218-1.47,1.58-3.469,0.951-5.27l-47.422-136.087l53.582-92.806C333.753,13.639,325.893,0,313.324,0z"></path>
	</g>
</g>
<g>
	<g>
		<path fill="#FFF" d="M364.69,377.874l-26.626-76.408c-1.396-4.003-6.629-4.948-9.336-1.685L203.382,450.873c-1.673,2.016-1.673,4.939,0,6.956
			l40.044,48.269c6.525,7.867,18.618,7.876,25.151,0l93.257-112.412C365.491,389.279,366.572,383.281,364.69,377.874z"></path>
	</g>
                                            </g></svg>


																						<svg style="width:2.3em;" version="1.1" id="Capa_1" xmlns="http://www.w3.org/2000/svg" xmlns:xlink="http://www.w3.org/1999/xlink" x="0px" y="0px" viewBox="0 0 60 60" xml:space="preserve">
										<g>
											<path fill="#FFF" d="M59.948,47.684L56.05,35.987c2.056-3.614,3.14-7.716,3.14-11.893C59.189,10.809,48.381,0,35.095,0
	c-9.409,0-17.957,5.502-21.884,14.038C5.822,18.158,0.811,26.05,0.811,35.095c0,4.177,1.084,8.278,3.14,11.893L0.052,58.684
	c-0.116,0.349-0.032,0.732,0.219,1C0.462,59.889,0.728,60,1,60c0.085,0,0.17-0.011,0.255-0.033l12.788-3.365
	c3.349,1.694,7.096,2.588,10.862,2.588c9.463,0,17.666-5.486,21.604-13.442l12.235,3.219C58.83,48.989,58.915,49,59,49
	c0.272,0,0.538-0.111,0.729-0.316C59.98,48.416,60.064,48.032,59.948,47.684z M24.905,57.189c-2.576,0-5.139-0.462-7.551-1.338
	l3.311-0.737c0.539-0.12,0.879-0.654,0.76-1.193c-0.12-0.54-0.661-0.872-1.193-0.76l-6.288,1.399
	c-0.007,0.002-0.012,0.007-0.019,0.008c-0.006,0.002-0.013,0-0.019,0.001L2.533,57.563L5.99,47.191
	c0.093-0.275,0.06-0.578-0.089-0.827c-2.022-3.401-3.091-7.298-3.091-11.27c0-8.641,4.99-16.135,12.236-19.765
	c0.126-0.063,0.251-0.128,0.379-0.189c0.202-0.096,0.407-0.187,0.612-0.277c0.189-0.083,0.379-0.164,0.571-0.241
	c0.169-0.069,0.339-0.137,0.511-0.202c0.286-0.107,0.574-0.209,0.864-0.304c0.089-0.03,0.177-0.062,0.267-0.091
	c0.411-0.13,0.827-0.248,1.245-0.354c0.021-0.005,0.042-0.009,0.063-0.015c0.391-0.097,0.784-0.182,1.18-0.258
	c0.088-0.017,0.176-0.032,0.264-0.047c0.331-0.059,0.664-0.111,0.998-0.155c0.11-0.014,0.219-0.029,0.33-0.042
	c0.323-0.038,0.647-0.067,0.971-0.09c0.109-0.008,0.217-0.019,0.326-0.025c0.425-0.025,0.851-0.04,1.277-0.04
	C37.088,13,47,22.912,47,35.095c0,0.385-0.01,0.769-0.03,1.151c-0.009,0.183-0.028,0.364-0.042,0.546
	c-0.015,0.196-0.026,0.392-0.046,0.587c-0.022,0.214-0.053,0.426-0.081,0.639c-0.021,0.161-0.039,0.323-0.064,0.483
	c-0.033,0.212-0.074,0.421-0.113,0.63c-0.03,0.161-0.057,0.323-0.091,0.484c-0.041,0.196-0.089,0.389-0.135,0.583
	c-0.042,0.175-0.081,0.35-0.127,0.524c-0.047,0.176-0.099,0.35-0.15,0.525c-0.056,0.191-0.111,0.382-0.172,0.572
	c-0.051,0.158-0.106,0.315-0.16,0.471c-0.07,0.203-0.142,0.407-0.218,0.608c-0.056,0.148-0.115,0.295-0.175,0.442
	c-0.081,0.201-0.165,0.402-0.252,0.601C41.727,51.732,33.943,57.189,24.905,57.189z M47.335,43.896
	c0.017-0.042,0.027-0.086,0.044-0.129c0.236-0.611,0.449-1.233,0.636-1.866c0.03-0.102,0.058-0.203,0.087-0.305
	c0.174-0.62,0.326-1.248,0.45-1.887c0.021-0.108,0.039-0.216,0.058-0.324c0.116-0.643,0.211-1.293,0.275-1.952
	c0.008-0.079,0.011-0.159,0.018-0.239C48.963,36.502,49,35.803,49,35.095C49,21.809,38.191,11,24.905,11
	c-0.712,0-1.414,0.037-2.11,0.098c-0.056,0.005-0.112,0.008-0.168,0.013c-0.691,0.065-1.373,0.163-2.046,0.285
	c-0.058,0.011-0.116,0.02-0.173,0.031c-0.67,0.127-1.33,0.283-1.979,0.464c-0.074,0.021-0.147,0.042-0.22,0.063
	c-0.628,0.182-1.247,0.388-1.853,0.619c-0.046,0.017-0.094,0.029-0.139,0.046C20.189,6.089,27.325,2,35.095,2
	c12.183,0,22.095,9.912,22.095,22.095c0,3.972-1.069,7.868-3.091,11.27c-0.148,0.249-0.182,0.552-0.089,0.827l3.457,10.371
	L47.335,43.896z"></path>
											<path fill="#FFF" d="M14,31c-2.206,0-4,1.794-4,4s1.794,4,4,4s4-1.794,4-4S16.206,31,14,31z M14,37c-1.103,0-2-0.897-2-2s0.897-2,2-2
	s2,0.897,2,2S15.103,37,14,37z"></path>
											<path fill="#FFF" d="M25,31c-2.206,0-4,1.794-4,4s1.794,4,4,4s4-1.794,4-4S27.206,31,25,31z M25,37c-1.103,0-2-0.897-2-2s0.897-2,2-2
	s2,0.897,2,2S26.103,37,25,37z"></path>
											<path fill="#FFF" d="M36,31c-2.206,0-4,1.794-4,4s1.794,4,4,4s4-1.794,4-4S38.206,31,36,31z M36,37c-1.103,0-2-0.897-2-2s0.897-2,2-2
	s2,0.897,2,2S37.103,37,36,37z"></path>
										</g>
									</svg>
