<?xml version="1.0" encoding="iso-8859-1"?>
<!-- Generator: Adobe Illustrator 16.0.0, SVG Export Plug-In . SVG Version: 6.00 Build 0)  -->
<!DOCTYPE svg PUBLIC "-//W3C//DTD SVG 1.1//EN" "http://www.w3.org/Graphics/SVG/1.1/DTD/svg11.dtd">
<svg version="1.1" id="Layer_1" class="rendez-vous-icon-svg" xmlns="http://www.w3.org/2000/svg" xmlns:xlink="http://www.w3.org/1999/xlink" x="0px" y="0px" viewBox="0 0 512 512" style="enable-background:new 0 0 512 512;" xml:space="preserve">
										<g transform="translate(1 1)">
											<g>
												<g>
													<path fill="#FFF" d="M131.414,490.255h-17.655c-5.297,0-8.828,3.531-8.828,8.828c0,5.297,3.531,8.828,8.828,8.828h17.655
			c5.297,0,8.828-3.531,8.828-8.828C140.241,493.786,136.71,490.255,131.414,490.255z"></path>
													<path fill="#FFF" d="M290.31,490.255h-17.655c-5.297,0-8.828,3.531-8.828,8.828c0,5.297,3.531,8.828,8.828,8.828h17.655
			c5.297,0,8.828-3.531,8.828-8.828C299.138,493.786,295.607,490.255,290.31,490.255z"></path>
													<path fill="#FFF" d="M237.345,490.255H219.69c-5.297,0-8.828,3.531-8.828,8.828c0,5.297,3.531,8.828,8.828,8.828h17.655
			c5.297,0,8.828-3.531,8.828-8.828C246.172,493.786,242.641,490.255,237.345,490.255z"></path>
													<path fill="#FFF" d="M25.483,490.255H7.828c-5.297,0-8.828,3.531-8.828,8.828c0,5.297,3.531,8.828,8.828,8.828h17.655
			c5.297,0,8.828-3.531,8.828-8.828C34.31,493.786,30.779,490.255,25.483,490.255z"></path>
													<path fill="#FFF" d="M78.448,490.255H60.793c-5.297,0-8.828,3.531-8.828,8.828c0,5.297,3.531,8.828,8.828,8.828h17.655
			c5.297,0,8.828-3.531,8.828-8.828C87.276,493.786,83.745,490.255,78.448,490.255z"></path>
													<path fill="#FFF" d="M184.379,490.255h-17.655c-5.297,0-8.828,3.531-8.828,8.828c0,5.297,3.531,8.828,8.828,8.828h17.655
			c5.297,0,8.828-3.531,8.828-8.828C193.207,493.786,189.676,490.255,184.379,490.255z"></path>
													<path fill="#FFF" d="M502.172,490.255h-17.655c-5.297,0-8.828,3.531-8.828,8.828c0,5.297,3.531,8.828,8.828,8.828h17.655
			c5.297,0,8.828-3.531,8.828-8.828C511,493.786,507.469,490.255,502.172,490.255z"></path>
													<path fill="#FFF" d="M449.207,490.255h-17.655c-5.297,0-8.828,3.531-8.828,8.828c0,5.297,3.531,8.828,8.828,8.828h17.655
			c5.297,0,8.828-3.531,8.828-8.828C458.034,493.786,454.503,490.255,449.207,490.255z"></path>
													<path fill="#FFF" d="M343.276,490.255h-17.655c-5.297,0-8.828,3.531-8.828,8.828c0,5.297,3.531,8.828,8.828,8.828h17.655
			c5.297,0,8.828-3.531,8.828-8.828C352.103,493.786,348.572,490.255,343.276,490.255z"></path>
													<path fill="#FFF" d="M396.241,490.255h-17.655c-5.297,0-8.828,3.531-8.828,8.828c0,5.297,3.531,8.828,8.828,8.828h17.655
			c5.297,0,8.828-3.531,8.828-8.828C405.069,493.786,401.538,490.255,396.241,490.255z"></path>
													<path fill="#FFF" d="M203.8,222.779l-6.179,6.179c0,0,0,0-0.001,0.001l-18.538,18.538c-3.531,3.531-3.531,8.828,0,12.359
			c1.766,1.766,3.531,2.648,6.179,2.648c1.766,0,4.414-0.883,6.179-2.648l18.538-18.538c0,0,0,0,0,0l6.179-6.179
			c3.531-3.531,3.531-8.828,0-12.359C212.628,219.248,207.331,219.248,203.8,222.779z"></path>
													<path fill="#FFF" d="M453.621,23.276C440.379,10.034,421.841,2.09,403.303,2.09c-17.655,0-35.31,6.179-47.669,18.538l-15.007,15.007l0,0
			l-0.003,0.003l-12.356,12.356l0.081,0.081L72.269,307.524c-1.869,1.869-2.738,4.232-2.629,6.566L2.531,464.655
			c-1.766,3.531-0.883,7.062,1.766,9.71c1.766,1.766,3.531,2.648,6.179,2.648c0.883,0,1.766-0.883,3.531,0l156.248-70.621
			c2.464-0.616,4.065-2.522,4.81-4.817l265.315-266.19v0l15.007-15.007c26.483-25.6,26.483-68.855-0.883-96.221L453.621,23.276z
				M228.517,210.421c1.766,1.766,3.531,2.648,6.179,2.648c2.648,0,4.414-0.883,6.179-2.648l100.193-100.193l24.717,24.717
			l-31.338,31.338c-3.531,3.531-3.531,8.828,0,12.359c1.766,1.766,3.531,2.648,6.179,2.648c2.648,0,4.414-0.883,6.179-2.648
			l31.338-31.338l12.8,12.8c0.015,0.015,0.029,0.027,0.044,0.041L175.552,376.327v-26.431l137.672-137.672
			c0.966-0.435,1.912-1.029,2.687-1.804l6.179-6.179c1.884-1.884,2.752-4.269,2.626-6.621c0.125-2.352-0.743-4.737-2.626-6.62
			c-3.531-3.531-8.828-3.531-12.359,0L160.293,340.438l-31.527,9.458l8.582-32.611l30.259-32.713c3.531-3.531,3.531-8.828,0-12.359
			c-3.531-3.531-8.828-3.531-12.359,0l-30.212,32.662H99.43L316.08,85.238l12.631,12.631L228.517,198.062
			C224.986,201.593,224.986,206.89,228.517,210.421z M48.014,404.207l36.613-81.676h32.662l-9.71,37.076
			c-0.883,3.531,0,7.062,2.648,8.828c2.648,1.766,6.179,2.648,8.828,1.766l38.841-11.476v32.662l-84.466,38.238L48.014,404.207z
				M403.324,147.767c-0.007-0.007-0.013-0.015-0.02-0.022l-74.95-74.95l12.274-12.443l75.034,75.034L403.324,147.767z
				M443.028,108.021l-15.007,15.007l-75.034-75.034l15.89-15.007c8.828-7.945,21.186-13.241,34.428-13.241
			c14.124,0,27.366,5.297,37.959,15.89l0.883,0.883C464.214,58.586,459.8,91.248,443.028,108.021z"></path>
												</g>
											</g>
										</g>
									</svg>
