<svg width="47" height="47" viewBox="0 0 47 47" fill="none" xmlns="http://www.w3.org/2000/svg"><path fill-rule="evenodd" clip-rule="evenodd" d="M28.1708 30.248C22.9806 34.4049 15.3834 34.0777 10.5722 29.2665C5.40998 24.1043 5.40998 15.7346 10.5722 10.5724C15.7345 5.41012 24.1041 5.41012 29.2664 10.5724C34.0776 15.3836 34.4047 22.9808 30.2479 28.1709L40.3443 38.2673C40.9179 38.8409 40.9179 39.7709 40.3443 40.3445C39.7708 40.918 38.8408 40.918 38.2672 40.3445L28.1708 30.248ZM12.6493 27.1894C8.63427 23.1743 8.63427 16.6646 12.6493 12.6495C16.6644 8.63441 23.1742 8.63441 27.1892 12.6495C31.2014 16.6616 31.2043 23.1647 27.1981 27.1805C27.1951 27.1834 27.1921 27.1864 27.1892 27.1893C27.1863 27.1923 27.1833 27.1952 27.1804 27.1982C23.1646 31.2044 16.6615 31.2015 12.6493 27.1894Z" fill="#1282A6"/></svg>