<svg width="79" height="79" viewBox="0 0 79 79" fill="none" xmlns="http://www.w3.org/2000/svg">
<path d="M78.9315 62.7839L73.7991 47.3829C76.5062 42.6245 77.9335 37.2235 77.9335 31.7238C77.9322 14.2319 63.7016 0 46.2084 0C33.8199 0 22.565 7.2443 17.3945 18.4834C7.66562 23.908 1.0678 34.2992 1.0678 46.2084C1.0678 51.7081 2.49507 57.1078 5.20214 61.8675L0.0684542 77.2673C-0.0842791 77.7268 0.0263209 78.2311 0.356804 78.5839C0.608287 78.8539 0.958521 79 1.31665 79C1.42857 79 1.54049 78.9855 1.6524 78.9566L18.4899 74.526C22.8995 76.7564 27.833 77.9335 32.7916 77.9335C45.2512 77.9335 56.0518 70.7103 61.2368 60.2349L77.3462 64.4732C77.4595 64.5022 77.5714 64.5167 77.6833 64.5167C78.0414 64.5167 78.3917 64.3705 78.6432 64.1006C78.9736 63.7477 79.0842 63.2421 78.9315 62.7839ZM32.7916 75.2989C29.3998 75.2989 26.0252 74.6906 22.8494 73.5372L27.2089 72.5668C27.9186 72.4088 28.3662 71.7057 28.2096 70.996C28.0516 70.285 27.3393 69.8479 26.6388 69.9953L18.3596 71.8373C18.3504 71.84 18.3438 71.8466 18.3346 71.8479C18.3267 71.8505 18.3175 71.8479 18.3096 71.8492L3.3351 75.7913L7.88682 62.1348C8.00927 61.7727 7.96582 61.3738 7.76964 61.0459C5.10734 56.568 3.69982 51.4369 3.69982 46.2071C3.69982 34.8298 10.27 24.9627 19.8106 20.1832C19.9764 20.1002 20.141 20.0147 20.3096 19.9343C20.5755 19.8079 20.8455 19.6881 21.1154 19.5696C21.3642 19.4603 21.6144 19.3537 21.8672 19.2523C22.0897 19.1615 22.3135 19.0719 22.54 18.9863C22.9166 18.8455 23.2958 18.7112 23.6776 18.5861C23.7948 18.5466 23.9107 18.5044 24.0292 18.4662C24.5703 18.2951 25.118 18.1397 25.6684 18.0002C25.6961 17.9936 25.7237 17.9883 25.7514 17.9804C26.2662 17.8527 26.7836 17.7408 27.305 17.6407C27.4209 17.6183 27.5368 17.5986 27.6526 17.5788C28.0884 17.5011 28.5269 17.4327 28.9666 17.3747C29.1115 17.3563 29.255 17.3366 29.4011 17.3194C29.8264 17.2694 30.253 17.2312 30.6796 17.2009C30.8231 17.1904 30.9653 17.1759 31.1089 17.168C31.6684 17.1351 32.2293 17.1154 32.7902 17.1154C48.8325 17.1167 61.8833 30.1675 61.8833 46.2084C61.8833 46.7153 61.8701 47.2209 61.8438 47.7239C61.832 47.9649 61.8069 48.2032 61.7885 48.4428C61.7688 48.7009 61.7543 48.9589 61.7279 49.2157C61.699 49.4975 61.6582 49.7766 61.6213 50.057C61.5936 50.269 61.5699 50.4823 61.537 50.693C61.4936 50.9721 61.4396 51.2473 61.3882 51.5225C61.3487 51.7345 61.3132 51.9478 61.2684 52.1598C61.2144 52.4178 61.1512 52.6719 61.0907 52.9274C61.0354 53.1578 60.984 53.3882 60.9235 53.6173C60.8616 53.849 60.7931 54.0781 60.726 54.3086C60.6522 54.56 60.5798 54.8115 60.4995 55.0617C60.4323 55.2697 60.3599 55.4764 60.2888 55.6818C60.1967 55.9491 60.1019 56.2177 60.0018 56.4824C59.9281 56.6772 59.8504 56.8708 59.7714 57.0643C59.6647 57.329 59.5541 57.5936 59.4396 57.8557C54.9405 68.1138 44.6916 75.2989 32.7916 75.2989ZM62.3244 57.7964C62.3468 57.7411 62.3599 57.6832 62.3823 57.6265C62.6931 56.8221 62.9735 56.0031 63.2197 55.1697C63.2592 55.0354 63.2961 54.9024 63.3343 54.7681C63.5634 53.9517 63.7635 53.1249 63.9268 52.2835C63.9544 52.1413 63.9781 51.9991 64.0031 51.8569C64.1559 51.0103 64.281 50.1545 64.3652 49.2868C64.3758 49.1828 64.3797 49.0774 64.3889 48.9721C64.4679 48.061 64.5166 47.1406 64.5166 46.2084C64.5166 28.7152 50.2848 14.4833 32.7916 14.4833C31.8541 14.4833 30.9298 14.5321 30.0134 14.6124C29.9397 14.6189 29.8659 14.6229 29.7922 14.6295C28.8824 14.7151 27.9844 14.8441 27.0983 15.0047C27.0219 15.0192 26.9456 15.0311 26.8705 15.0456C25.9883 15.2128 25.1194 15.4182 24.2648 15.6565C24.1674 15.6841 24.0713 15.7118 23.9752 15.7394C23.1483 15.9791 22.3333 16.2503 21.5354 16.5545C21.4748 16.5768 21.4116 16.5926 21.3524 16.615C26.5822 8.01718 35.9779 2.63333 46.2084 2.63333C62.2493 2.63333 75.3001 15.6841 75.3001 31.7251C75.3001 36.9549 73.8926 42.0846 71.2303 46.5639C71.0355 46.8918 70.9907 47.2907 71.1131 47.6528L75.6649 61.308L62.3244 57.7964Z" fill="#F2FCFF"/>
<path d="M18.4333 40.8167C15.5288 40.8167 13.1667 43.1788 13.1667 46.0833C13.1667 48.9879 15.5288 51.35 18.4333 51.35C21.3379 51.35 23.7 48.9879 23.7 46.0833C23.7 43.1788 21.3379 40.8167 18.4333 40.8167ZM18.4333 48.7167C16.981 48.7167 15.8 47.5356 15.8 46.0833C15.8 44.631 16.981 43.45 18.4333 43.45C19.8856 43.45 21.0667 44.631 21.0667 46.0833C21.0667 47.5356 19.8856 48.7167 18.4333 48.7167Z" fill="#F2FCFF"/>
<path d="M32.9167 40.8167C30.0121 40.8167 27.65 43.1788 27.65 46.0833C27.65 48.9879 30.0121 51.35 32.9167 51.35C35.8212 51.35 38.1833 48.9879 38.1833 46.0833C38.1833 43.1788 35.8212 40.8167 32.9167 40.8167ZM32.9167 48.7167C31.4644 48.7167 30.2833 47.5356 30.2833 46.0833C30.2833 44.631 31.4644 43.45 32.9167 43.45C34.3689 43.45 35.55 44.631 35.55 46.0833C35.55 47.5356 34.3689 48.7167 32.9167 48.7167Z" fill="#F2FCFF"/>
<path d="M47.4 40.8167C44.4954 40.8167 42.1333 43.1788 42.1333 46.0833C42.1333 48.9879 44.4954 51.35 47.4 51.35C50.3046 51.35 52.6667 48.9879 52.6667 46.0833C52.6667 43.1788 50.3046 40.8167 47.4 40.8167ZM47.4 48.7167C45.9477 48.7167 44.7667 47.5356 44.7667 46.0833C44.7667 44.631 45.9477 43.45 47.4 43.45C48.8523 43.45 50.0333 44.631 50.0333 46.0833C50.0333 47.5356 48.8523 48.7167 47.4 48.7167Z" fill="#F2FCFF"/>
</svg>
