<svg width="79" height="79" viewBox="0 0 79 79" fill="none" xmlns="http://www.w3.org/2000/svg">
<path d="M48.3448 0H30.6551C28.718 0 27.5019 2.10229 28.4717 3.78196L36.7392 18.1016L22.7299 58.3044C22.4392 59.1387 22.6063 60.0641 23.1704 60.7438L27.0131 65.3759C27.3492 65.781 27.9707 65.781 28.3068 65.3759L49.4312 39.9126C49.6191 39.6858 49.6749 39.3773 49.5779 39.0994L42.2609 18.1017L50.5284 3.78211C51.4969 2.10445 50.2841 0 48.3448 0Z" fill="#F2FCFF"/>
<path d="M56.2703 58.3045L52.162 46.515C51.9466 45.8973 51.1392 45.7515 50.7215 46.255L31.3811 69.5679C31.123 69.879 31.123 70.33 31.3811 70.6412L37.5597 78.0889C38.5665 79.3028 40.4324 79.3042 41.4405 78.0889L55.8297 60.7442C56.3939 60.0642 56.5607 59.1387 56.2703 58.3045Z" fill="#F2FCFF"/>
</svg>
