<svg width="79" height="79" viewBox="0 0 79 79" fill="none" xmlns="http://www.w3.org/2000/svg">
<path d="M20.4311 75.7991H17.707C16.8896 75.7991 16.3448 76.3439 16.3448 77.1612C16.3448 77.9785 16.8896 78.5233 17.707 78.5233H20.4311C21.2484 78.5233 21.7932 77.9785 21.7932 77.1612C21.793 76.3439 21.2482 75.7991 20.4311 75.7991Z" fill="#F2FCFF"/>
<path d="M44.9482 75.7991H42.2241C41.4068 75.7991 40.862 76.3439 40.862 77.1612C40.862 77.9785 41.4068 78.5233 42.2241 78.5233H44.9482C45.7655 78.5233 46.3103 77.9785 46.3103 77.1612C46.3103 76.3439 45.7655 75.7991 44.9482 75.7991Z" fill="#F2FCFF"/>
<path d="M36.7759 75.7991H34.0518C33.2345 75.7991 32.6896 76.3439 32.6896 77.1612C32.6896 77.9785 33.2345 78.5233 34.0518 78.5233H36.7759C37.5932 78.5233 38.138 77.9785 38.138 77.1612C38.1379 76.3439 37.593 75.7991 36.7759 75.7991Z" fill="#F2FCFF"/>
<path d="M4.08624 75.7991H1.36213C0.544822 75.7991 0 76.3439 0 77.1612C0 77.9785 0.544822 78.5233 1.36213 78.5233H4.08624C4.90355 78.5233 5.44838 77.9785 5.44838 77.1612C5.44822 76.3439 4.9034 75.7991 4.08624 75.7991Z" fill="#F2FCFF"/>
<path d="M12.2586 75.7991H9.53447C8.71715 75.7991 8.17233 76.3439 8.17233 77.1612C8.17233 77.9785 8.71715 78.5233 9.53447 78.5233H12.2586C13.0759 78.5233 13.6207 77.9785 13.6207 77.1612C13.6207 76.3439 13.0759 75.7991 12.2586 75.7991Z" fill="#F2FCFF"/>
<path d="M28.6034 75.7991H25.8793C25.062 75.7991 24.5172 76.3439 24.5172 77.1612C24.5172 77.9785 25.062 78.5233 25.8793 78.5233H28.6034C29.4207 78.5233 29.9655 77.9785 29.9655 77.1612C29.9655 76.3439 29.4207 75.7991 28.6034 75.7991Z" fill="#F2FCFF"/>
<path d="M77.6379 75.7991H74.9138C74.0964 75.7991 73.5516 76.3439 73.5516 77.1612C73.5516 77.9785 74.0964 78.5233 74.9138 78.5233H77.6379C78.4552 78.5233 79 77.9785 79 77.1612C79 76.3439 78.4552 75.7991 77.6379 75.7991Z" fill="#F2FCFF"/>
<path d="M69.4655 75.7991H66.7414C65.9241 75.7991 65.3793 76.3439 65.3793 77.1612C65.3793 77.9785 65.9241 78.5233 66.7414 78.5233H69.4655C70.2828 78.5233 70.8277 77.9785 70.8277 77.1612C70.8275 76.3439 70.2827 75.7991 69.4655 75.7991Z" fill="#F2FCFF"/>
<path d="M53.1207 75.7991H50.3966C49.5793 75.7991 49.0345 76.3439 49.0345 77.1612C49.0345 77.9785 49.5793 78.5233 50.3966 78.5233H53.1207C53.938 78.5233 54.4828 77.9785 54.4828 77.1612C54.4827 76.3439 53.9379 75.7991 53.1207 75.7991Z" fill="#F2FCFF"/>
<path d="M61.293 75.7991H58.5689C57.7516 75.7991 57.2068 76.3439 57.2068 77.1612C57.2068 77.9785 57.7516 78.5233 58.5689 78.5233H61.293C62.1104 78.5233 62.6552 77.9785 62.6552 77.1612C62.6552 76.3439 62.1104 75.7991 61.293 75.7991Z" fill="#F2FCFF"/>
<path d="M31.6 34.5285L30.6466 35.4819C30.6466 35.4819 30.6466 35.4819 30.6464 35.482L27.7861 38.3424C27.2413 38.8872 27.2413 39.7045 27.7861 40.2493C28.0586 40.5218 28.3309 40.6579 28.7395 40.6579C29.012 40.6579 29.4206 40.5217 29.6929 40.2493L32.5532 37.389L33.5067 36.4356C34.0515 35.8908 34.0515 35.0734 33.5067 34.5286C32.9621 33.9836 32.1448 33.9836 31.6 34.5285Z" fill="#F2FCFF"/>
<path d="M70.1466 3.74574C68.1034 1.70254 65.243 0.476807 62.3827 0.476807C59.6586 0.476807 56.9345 1.43021 55.0275 3.33716L52.712 5.6527L52.7115 5.65316L50.805 7.55965L50.8175 7.57215L11.3052 47.6043C11.0168 47.8927 10.8827 48.2573 10.8995 48.6174L0.544825 71.8491C0.272337 72.394 0.408581 72.9388 0.817314 73.3474C1.0898 73.6199 1.36214 73.7559 1.77071 73.7559C1.90696 73.7559 2.0432 73.6197 2.31554 73.7559L26.4241 62.8593C26.8043 62.7643 27.0513 62.4702 27.1663 62.1161L68.1036 21.0438L70.4191 18.7283C74.5053 14.7783 74.5053 8.10416 70.2828 3.88168L70.1466 3.74574ZM35.4138 32.6216C35.6862 32.8941 35.9586 33.0302 36.3672 33.0302C36.7757 33.0302 37.0482 32.894 37.3206 32.6216L52.78 17.1622L56.5938 20.9759L51.7584 25.8113C51.2136 26.3561 51.2136 27.1734 51.7584 27.7182C52.0309 27.9907 52.3033 28.1268 52.7118 28.1268C53.1204 28.1268 53.3929 27.9906 53.6652 27.7182L58.5006 22.8829L60.4756 24.8579C60.4779 24.8602 60.4801 24.862 60.4824 24.8642L27.2414 58.2204V54.1422L48.4838 32.8998C48.6328 32.8327 48.7788 32.7411 48.8984 32.6215L49.8518 31.6681C50.1425 31.3774 50.2764 31.0094 50.257 30.6465C50.2763 30.2836 50.1423 29.9156 49.8518 29.625C49.307 29.0802 48.4896 29.0802 47.9448 29.625L24.887 52.6828L20.0225 54.1422L21.3467 49.1104L26.0155 44.0629C26.5604 43.5181 26.5604 42.7008 26.0155 42.1559C25.4707 41.6111 24.6534 41.6111 24.1086 42.1559L19.447 47.1956H15.496L48.9245 13.3063L50.8734 15.2552L35.4138 30.7147C34.8689 31.2595 34.8689 32.0768 35.4138 32.6216ZM7.56271 62.5222L13.212 49.9199H18.2516L16.7534 55.6406C16.6172 56.1854 16.7534 56.7302 17.162 57.0027C17.5706 57.2752 18.1154 57.4113 18.5241 57.2752L24.5172 55.5045V60.5441L11.4843 66.4441L7.56271 62.5222ZM62.3859 22.9543C62.3849 22.9532 62.3839 22.952 62.3828 22.9509L50.8183 11.3864L52.7121 9.46645L64.2896 21.044L62.3859 22.9543ZM68.5121 16.8216L66.1966 19.1372L54.6191 7.55965L57.0709 5.24412C58.433 4.01823 60.3398 3.20107 62.383 3.20107C64.5623 3.20107 66.6055 4.01838 68.24 5.65285L68.3762 5.78909C71.7811 9.19396 71.1 14.2336 68.5121 16.8216Z" fill="#F2FCFF"/>
</svg>
