<svg width="79" height="79" viewBox="0 0 79 79" fill="none" xmlns="http://www.w3.org/2000/svg">
<path d="M39.5 12.3438C32.6827 12.3438 27.1562 17.8702 27.1562 24.6875C27.1562 31.5048 32.6827 37.0312 39.5 37.0312C46.3172 37.0312 51.8437 31.5048 51.8437 24.6875C51.8437 17.8702 46.3172 12.3438 39.5 12.3438Z" fill="#F2FCFF"/>
<path d="M26.3333 43.6146C19.516 43.6146 13.9896 49.1411 13.9896 55.9583V59.8698C13.9896 62.3491 15.7864 64.4632 18.2334 64.8627C32.3179 67.1622 46.6821 67.1622 60.7665 64.8627C63.2135 64.4632 65.0104 62.3491 65.0104 59.8698V55.9583C65.0104 49.1411 59.4839 43.6146 52.6666 43.6146H51.5446C50.9373 43.6146 50.3339 43.7106 49.7566 43.8991L46.9076 44.8294C42.0942 46.4011 36.9057 46.4011 32.0924 44.8294L29.2434 43.8991C28.6661 43.7106 28.0626 43.6146 27.4553 43.6146H26.3333Z" fill="#F2FCFF"/>
</svg>
